<svg xmlns="http://www.w3.org/2000/svg" xmlns:xlink="http://www.w3.org/1999/xlink" viewBox="0 0 1600 900" role="img" aria-labelledby="pt pd"><title id="pt">How one sensor reads its own lever arm and yaw offset out of vehicle motion</title><desc id="pd">Schematic. Left panel: a vehicle moving forward through a gentle turn. Forward speed makes yaw observable, while each accepted curvature couples yaw and longitudinal lever arm differently. Right panel: the same vehicle in a steady turn about an instantaneous centre of rotation. The axle point is still lateral-free, while the sensor, mounted a lever arm ahead of it, gains a lateral velocity equal to the turn rate times that lever arm. A readout below plots lateral velocity against turn rate: the near-zero turn-rate band is gated out and accepted turns constrain yaw and lever arm jointly. No numbers with units appear; the figure is a mechanism sketch, not a measurement.</desc><style>
    .panel { fill: #ffffff; stroke: #d8d8d8; stroke-width: 1.6; }
    .body { fill: #f5f5f3; stroke: #d8d8d8; stroke-width: 1.8; }
    .road { fill: none; stroke: #d8d8d8; stroke-width: 6; stroke-linecap: round; }
    .trace { fill: none; stroke: #191919; stroke-width: 5; stroke-linecap: round; opacity: .55; }
    .fg-thin { fill: none; stroke: #666666; stroke-width: 1.8; }
    .fg-arrow { fill: none; stroke: #666666; stroke-width: 2.4; }
    .rule-line { fill: none; stroke: #d8d8d8; stroke-width: 2; }
    .rule-dash { fill: none; stroke: #d8d8d8; stroke-width: 2; stroke-dasharray: 7 6; }
    .ink-dash { fill: none; stroke: #666666; stroke-width: 1.8; stroke-dasharray: 8 7; }
    .axis-dash { fill: none; stroke: #a52e29; stroke-width: 1.8; stroke-dasharray: 8 7; opacity: .75; }
    .fit { fill: none; stroke: #666666; stroke-width: 2.6; }
    .gate-band { fill: #d8d8d8; opacity: .45; }
    .bracket { fill: none; stroke: #191919; stroke-width: 2.2; }
    .axle { fill: none; stroke: #191919; stroke-width: 6; stroke-linecap: round; }
    .v-ink { fill: none; stroke: #191919; stroke-width: 4; }
    .v-thin { fill: none; stroke: #191919; stroke-width: 2.2; }
    .comp { fill: none; stroke: #a52e29; stroke-width: 3; opacity: .8; }
    .comp-strong { fill: none; stroke: #a52e29; stroke-width: 5; }
    .ink-fill { fill: #191919; stroke: #ffffff; stroke-width: 2.5; }
    .acc-fill { fill: #a52e29; stroke: #ffffff; stroke-width: 2.5; }
    .acc-open { fill: #ffffff; stroke: #a52e29; stroke-width: 3.4; }
    .icr-dot { fill: #ffffff; stroke: #666666; stroke-width: 3; }
    text { font-family: Arial, Helvetica, sans-serif; fill: #191919; }
    .h { font-size: 33px; font-weight: 700; }
    .lbl { font-size: 23px; fill: #666666; }
    .note { font-size: 25px; fill: #666666; }
    .big-m { font-size: 44px; font-weight: 700; fill: #666666; }
    .sym { font-size: 30px; font-weight: 700; fill: #666666; }
    .sym-s { font-size: 21px; font-weight: 700; fill: #666666; }
    .symi { font-size: 30px; font-weight: 700; fill: #191919; }
    .symi-s { font-size: 21px; font-weight: 700; fill: #191919; }
    .syma { font-size: 30px; font-weight: 700; fill: #a52e29; }
    .syma-s { font-size: 21px; font-weight: 700; fill: #a52e29; }
</style><defs><marker id="tip" viewBox="0 0 10 10" refX="9" refY="5" markerWidth="6" markerHeight="6" orient="auto-start-reverse"><path d="M 0 0 L 10 5 L 0 10 z" fill="#666666"/></marker><marker id="tip-i" viewBox="0 0 10 10" refX="9" refY="5" markerWidth="6" markerHeight="6" orient="auto-start-reverse"><path d="M 0 0 L 10 5 L 0 10 z" fill="#191919"/></marker><marker id="tip-a" viewBox="0 0 10 10" refX="9" refY="5" markerWidth="6" markerHeight="6" orient="auto-start-reverse"><path d="M 0 0 L 10 5 L 0 10 z" fill="#a52e29"/></marker><g id="asmTurn"><rect x="-40" y="-30" width="236" height="60" rx="16" class="body"/><line x1="0" y1="-30" x2="0" y2="30" class="axle"/><line x1="0" y1="34" x2="0" y2="56" class="fg-thin"/><line x1="150" y1="34" x2="150" y2="56" class="fg-thin"/><line x1="0" y1="56" x2="150" y2="56" class="bracket" marker-start="url(#tip-i)" marker-end="url(#tip-i)"/><circle cx="0" cy="0" r="10" class="ink-fill"/><circle cx="150" cy="0" r="11" class="acc-fill"/><line x1="0" y1="0" x2="86" y2="0" class="v-ink" marker-end="url(#tip-i)"/><line x1="150" y1="0" x2="260" y2="0" class="ink-dash"/><line x1="150" y1="0" x2="260" y2="-55" class="v-thin" marker-end="url(#tip-i)"/><line x1="260" y1="0" x2="260" y2="-55" class="comp-strong" marker-end="url(#tip-a)"/></g><path id="paTrail" d="M 175 385.6 L 181.8 386.7 L 188.7 387.9 L 195.5 388.9 L 202.3 390 L 209.2 390.9 L 216 391.9 L 222.9 392.7 L 229.7 393.6 L 236.6 394.4 L 243.4 395.1 L 250.3 395.8 L 257.2 396.4 L 264.1 397 L 271 397.5 L 277.9 398 L 284.8 398.4 L 291.7 398.8 L 298.6 399.1 L 305.5 399.4 L 312.4 399.6 L 319.3 399.8 L 326.2 399.9 L 333.1 400 L 340 400 L 346.9 400 L 353.8 399.9 L 360.7 399.8 L 367.6 399.6 L 374.5 399.4 L 381.4 399.1 L 388.3 398.8 L 395.2 398.4 L 402.1 398 L 409 397.5 L 415.9 397 L 422.8 396.4 L 429.7 395.8 L 436.6 395.1 L 443.4 394.4 L 450.3 393.6 L 457.1 392.7 L 464 391.9 L 470.8 390.9 L 477.7 390 L 484.5 388.9 L 491.3 387.9 L 498.2 386.7 L 505 385.6" class="mp"/><path id="pbTrail" d="M 982.2 399.8 L 985.5 402.6 L 988.9 405.3 L 992.4 408 L 995.9 410.6 L 999.4 413.2 L 1002.9 415.7 L 1006.5 418.2 L 1010.1 420.6 L 1013.8 423 L 1017.5 425.3 L 1021.2 427.6 L 1025 429.8 L 1028.8 432 L 1032.6 434.1 L 1036.5 436.1 L 1040.4 438.1 L 1044.3 440 L 1048.2 441.9 L 1052.2 443.7 L 1056.2 445.5 L 1060.2 447.2 L 1064.2 448.8 L 1068.3 450.4 L 1072.4 451.9 L 1076.5 453.4 L 1080.6 454.8 L 1084.8 456.1 L 1089 457.4 L 1093.1 458.6 L 1097.4 459.8 L 1101.6 460.9 L 1105.8 461.9 L 1110.1 462.9 L 1114.3 463.8 L 1118.6 464.7 L 1122.9 465.4 L 1127.2 466.2 L 1131.5 466.8 L 1135.8 467.4 L 1140.2 468 L 1144.5 468.4 L 1148.9 468.9 L 1153.2 469.2 L 1157.6 469.5 L 1161.9 469.7 L 1166.3 469.9 L 1170.6 470 L 1175 470" class="mp"/><path id="pbL0" d="M 975.1 506.2 L 985 511.9 L 995 517.2 L 1005.2 522.3 L 1015.5 527.1 L 1026 531.6 L 1036.6 535.8 L 1047.3 539.7 L 1058.1 543.2 L 1069 546.5 L 1080 549.4 L 1091 552 L 1102.2 554.3 L 1113.4 556.2 L 1124.6 557.9 L 1135.9 559.2 L 1147.3 560.1 L 1158.6 560.8 L 1170 561.1 L 1181.4 561.1 L 1192.8 560.7 L 1204.1 560 L 1215.4 559 L 1226.7 557.7 L 1238 556" class="mp"/><path id="pbL1" d="M 1226.4 538.2 L 1237.1 536.5 L 1247.7 534.5 L 1258.3 532.3 L 1268.8 529.7 L 1279.2 526.8 L 1289.5 523.6 L 1299.8 520.2 L 1309.9 516.4 L 1319.9 512.3 L 1329.8 508 L 1339.6 503.3 L 1349.2 498.4 L 1358.7 493.2 L 1368 487.7 L 1377.1 481.9 L 1386.1 475.9 L 1394.9 469.7 L 1403.6 463.1 L 1412 456.4 L 1420.2 449.4 L 1428.2 442.1 L 1436.1 434.6 L 1443.6 426.9 L 1451 419" class="mp"/></defs><rect width="1600" height="900" fill="#ffffff"/><text x="800" y="48" class="h" text-anchor="middle">Lateral velocity is not free: the turn rate and the longitudinal lever arm fix it.</text><text x="800" y="84" class="lbl" text-anchor="middle">One sensor, one scalar per frame &#8212; no target, no shared field of view, no point correspondence.</text><rect x="60" y="104" width="730" height="530" rx="14" class="panel"/><text x="92" y="150" class="h" text-anchor="start">Forward motion in a turn</text><text x="760" y="194" class="big-m" text-anchor="end">v&#8339; &#8800; 0</text><text x="92" y="590" class="note" text-anchor="start">Forward speed makes the yaw offset observable.</text><text x="92" y="620" class="note" text-anchor="start">Each accepted curvature couples &#968; and X differently.</text><path d="M 175 385.6 L 181.8 386.7 L 188.7 387.9 L 195.5 388.9 L 202.3 390 L 209.2 390.9 L 216 391.9 L 222.9 392.7 L 229.7 393.6 L 236.6 394.4 L 243.4 395.1 L 250.3 395.8 L 257.2 396.4 L 264.1 397 L 271 397.5 L 277.9 398 L 284.8 398.4 L 291.7 398.8 L 298.6 399.1 L 305.5 399.4 L 312.4 399.6 L 319.3 399.8 L 326.2 399.9 L 333.1 400 L 340 400 L 346.9 400 L 353.8 399.9 L 360.7 399.8 L 367.6 399.6 L 374.5 399.4 L 381.4 399.1 L 388.3 398.8 L 395.2 398.4 L 402.1 398 L 409 397.5 L 415.9 397 L 422.8 396.4 L 429.7 395.8 L 436.6 395.1 L 443.4 394.4 L 450.3 393.6 L 457.1 392.7 L 464 391.9 L 470.8 390.9 L 477.7 390 L 484.5 388.9 L 491.3 387.9 L 498.2 386.7 L 505 385.6" class="road"/><path d="M 175 385.6 L 181.8 386.7 L 188.7 387.9 L 195.5 388.9 L 202.3 390 L 209.2 390.9 L 216 391.9 L 222.9 392.7 L 229.7 393.6 L 236.6 394.4 L 243.4 395.1 L 250.3 395.8 L 257.2 396.4 L 264.1 397 L 271 397.5 L 277.9 398 L 284.8 398.4 L 291.7 398.8 L 298.6 399.1 L 305.5 399.4 L 312.4 399.6 L 319.3 399.8 L 326.2 399.9 L 333.1 400 L 340 400 L 346.9 400 L 353.8 399.9 L 360.7 399.8 L 367.6 399.6 L 374.5 399.4 L 381.4 399.1 L 388.3 398.8 L 395.2 398.4 L 402.1 398 L 409 397.5 L 415.9 397 L 422.8 396.4 L 429.7 395.8 L 436.6 395.1 L 443.4 394.4 L 450.3 393.6 L 457.1 392.7 L 464 391.9 L 470.8 390.9 L 477.7 390 L 484.5 388.9 L 491.3 387.9 L 498.2 386.7 L 505 385.6" class="trace" pathLength="1000" stroke-dasharray="1000" stroke-dashoffset="1000"><animate attributeName="stroke-dashoffset" values="1000;0;0" keyTimes="0;0.44;1" dur="4.5s" calcMode="linear" repeatCount="indefinite"/></path><g opacity="0"><animateMotion dur="4.5s" repeatCount="indefinite" rotate="auto" calcMode="linear" keyPoints="0;1;1" keyTimes="0;0.44;1"><mpath href="#paTrail" xlink:href="#paTrail"/></animateMotion><animate attributeName="opacity" values="0;1;1;0" keyTimes="0;0.08;0.88;1" dur="4.5s" calcMode="linear" repeatCount="indefinite"/><rect x="-40" y="-30" width="236" height="60" rx="16" class="body"/><line x1="0" y1="-30" x2="0" y2="30" class="axle"/><line x1="0" y1="34" x2="0" y2="56" class="fg-thin"/><line x1="150" y1="34" x2="150" y2="56" class="fg-thin"/><line x1="0" y1="56" x2="150" y2="56" class="bracket" marker-start="url(#tip-i)" marker-end="url(#tip-i)"/><circle cx="0" cy="0" r="10" class="ink-fill"/><circle cx="150" cy="0" r="11" class="acc-fill"/><line x1="0" y1="0" x2="86" y2="0" class="v-ink" marker-end="url(#tip-i)"/><line x1="150" y1="0" x2="260" y2="0" class="v-ink" marker-end="url(#tip-i)"/><line x1="150" y1="0" x2="295.5" y2="-84" class="axis-dash"/><line x1="150" y1="0" x2="232.5" y2="-47.6" class="comp" marker-end="url(#tip-a)"/><line x1="232.5" y1="-47.6" x2="260" y2="0" class="comp-strong" marker-end="url(#tip-a)"/><path d="M 192 0 A 42 42 0 0 0 186.4 -21" class="fg-thin"/><text x="63" y="86" class="symi" text-anchor="start">p</text><text x="80" y="95" class="symi-s" text-anchor="start">x</text><text x="176" y="-52" class="syma" text-anchor="start">&#7805;</text><text x="192" y="-43" class="syma-s" text-anchor="start">x</text><text x="266" y="-30" class="syma" text-anchor="start">&#7805;</text><text x="282" y="-21" class="syma-s" text-anchor="start">y</text><text x="202" y="-12" class="sym" text-anchor="start">&#968;</text></g><rect x="810" y="104" width="730" height="530" rx="14" class="panel"/><text x="842" y="150" class="h" text-anchor="start">Steady turn</text><text x="1510" y="194" class="big-m" text-anchor="end">&#969; &#8800; 0</text><text x="842" y="590" class="note" text-anchor="start">The axle point has no lateral velocity at all.</text><text x="842" y="620" class="note" text-anchor="start">What the sensor sees is the lever arm times &#969;.</text><line x1="1175" y1="170" x2="1175" y2="470" class="rule-dash"/><circle cx="1175" cy="170" r="9" class="icr-dot"/><line x1="1153" y1="170" x2="1197" y2="170" class="fg-thin"/><line x1="1175" y1="148" x2="1175" y2="192" class="fg-thin"/><text x="1149" y="212" class="sym" text-anchor="end">ICR</text><path d="M 1223.9 147.2 A 54 54 0 0 0 1126.1 147.2" class="fg-arrow" marker-end="url(#tip)"/><text x="1247" y="180" class="sym" text-anchor="start">&#969;</text><path d="M 982.2 399.8 L 988.9 405.3 L 995.9 410.6 L 1002.9 415.7 L 1010.1 420.6 L 1017.5 425.3 L 1025 429.8 L 1032.6 434.1 L 1040.4 438.1 L 1048.2 441.9 L 1056.2 445.5 L 1064.2 448.8 L 1072.4 451.9 L 1080.6 454.8 L 1089 457.4 L 1097.4 459.8 L 1105.8 461.9 L 1114.3 463.8 L 1122.9 465.4 L 1131.5 466.8 L 1140.2 468 L 1148.9 468.9 L 1157.6 469.5 L 1166.3 469.9 L 1175 470 L 1183.7 469.9 L 1192.4 469.5 L 1201.1 468.9 L 1209.8 468 L 1218.5 466.8 L 1227.1 465.4 L 1235.7 463.8 L 1244.2 461.9 L 1252.6 459.8 L 1261 457.4 L 1269.4 454.8 L 1277.6 451.9 L 1285.8 448.8 L 1293.8 445.5 L 1301.8 441.9 L 1309.6 438.1 L 1317.4 434.1 L 1325 429.8 L 1332.5 425.3 L 1339.9 420.6 L 1347.1 415.7 L 1354.1 410.6 L 1361.1 405.3 L 1367.8 399.8" class="road"/><path d="M 982.2 399.8 L 985.5 402.6 L 988.9 405.3 L 992.4 408 L 995.9 410.6 L 999.4 413.2 L 1002.9 415.7 L 1006.5 418.2 L 1010.1 420.6 L 1013.8 423 L 1017.5 425.3 L 1021.2 427.6 L 1025 429.8 L 1028.8 432 L 1032.6 434.1 L 1036.5 436.1 L 1040.4 438.1 L 1044.3 440 L 1048.2 441.9 L 1052.2 443.7 L 1056.2 445.5 L 1060.2 447.2 L 1064.2 448.8 L 1068.3 450.4 L 1072.4 451.9 L 1076.5 453.4 L 1080.6 454.8 L 1084.8 456.1 L 1089 457.4 L 1093.1 458.6 L 1097.4 459.8 L 1101.6 460.9 L 1105.8 461.9 L 1110.1 462.9 L 1114.3 463.8 L 1118.6 464.7 L 1122.9 465.4 L 1127.2 466.2 L 1131.5 466.8 L 1135.8 467.4 L 1140.2 468 L 1144.5 468.4 L 1148.9 468.9 L 1153.2 469.2 L 1157.6 469.5 L 1161.9 469.7 L 1166.3 469.9 L 1170.6 470 L 1175 470" class="trace" pathLength="1000" stroke-dasharray="1000" stroke-dashoffset="1000"><animate attributeName="stroke-dashoffset" values="1000;0;0" keyTimes="0;0.44;1" dur="4.5s" calcMode="linear" repeatCount="indefinite"/></path><g><animateMotion dur="4.5s" repeatCount="indefinite" rotate="auto" calcMode="linear" keyPoints="0;1;1" keyTimes="0;0.44;1"><mpath href="#pbTrail" xlink:href="#pbTrail"/></animateMotion><use href="#asmTurn" xlink:href="#asmTurn"/></g><g><animateMotion dur="4.5s" repeatCount="indefinite" calcMode="linear" keyPoints="0;1;1" keyTimes="0;0.44;1"><mpath href="#pbL0" xlink:href="#pbL0"/></animateMotion><text x="0" y="0" class="symi" text-anchor="start">p</text><text x="17" y="9" class="symi-s" text-anchor="start">x</text></g><g><animateMotion dur="4.5s" repeatCount="indefinite" calcMode="linear" keyPoints="0;1;1" keyTimes="0;0.44;1"><mpath href="#pbL1" xlink:href="#pbL1"/></animateMotion><text x="0" y="0" class="syma" text-anchor="start">&#969; p</text><text x="47" y="9" class="syma-s" text-anchor="start">x</text></g><rect x="60" y="660" width="1480" height="216" rx="14" class="panel"/><text x="110" y="716" class="h" text-anchor="start">One line, two unknowns</text><text x="110" y="758" class="symi" text-anchor="start">slope &#8594; p</text><text x="250" y="767" class="symi-s" text-anchor="start">x</text><text x="110" y="798" class="symi" text-anchor="start">origin &#8594; &#968;</text><line x1="544" y1="768" x2="1036" y2="768" class="rule-line"/><line x1="790" y1="690" x2="790" y2="846" class="rule-line"/><text x="1048" y="778" class="sym" text-anchor="start">&#969;</text><text x="772" y="690" class="lbl" text-anchor="end">lateral velocity in vehicle axes</text><path d="M 560 830 L 1020 706" class="fit" id="fitLine"/><circle cx="570" cy="827.3" r="9" class="acc-open"/><text x="582" y="864" class="lbl" text-anchor="start">opposite turn</text><rect x="762" y="690" width="56" height="156" class="gate-band"/><text x="806" y="802" class="lbl" text-anchor="start">gated band</text><text x="1014" y="690" class="lbl" text-anchor="end">turning frames</text><g><animateMotion dur="4.5s" repeatCount="indefinite" calcMode="linear" keyPoints="0.5;0.978;0.978" keyTimes="0;0.44;1"><mpath href="#fitLine" xlink:href="#fitLine"/></animateMotion><circle cx="0" cy="0" r="10" class="acc-fill"/></g><text x="1500" y="730" class="note" text-anchor="end">The slope of that line is the lever arm.</text><text x="1500" y="768" class="note" text-anchor="end">Forward speed supplies the yaw lever; different</text><text x="1500" y="806" class="note" text-anchor="end">curvatures intersect in the (&#968;, X) space.</text></svg>